<svg width="22" height="21" viewBox="0 0 22 21" fill="none" xmlns="http://www.w3.org/2000/svg">
<path fill-rule="evenodd" clip-rule="evenodd" d="M3.22181 0.600474C2.63602 0.0146856 1.68626 0.0146856 1.10047 0.600474C0.514687 1.18626 0.514687 2.13601 1.10047 2.72179L8.8787 10.5L1.10047 18.2782C0.514687 18.864 0.514687 19.8138 1.10047 20.3995C1.68626 20.9853 2.63599 20.9853 3.22178 20.3995L11 12.6213L18.7781 20.3995C19.3639 20.9852 20.3137 20.9852 20.8995 20.3995C21.4853 19.8137 21.4853 18.8639 20.8995 18.2781L13.1213 10.5L20.8995 2.72188C21.4852 2.13609 21.4852 1.18634 20.8995 0.600554C20.3137 0.0147696 19.3639 0.0147696 18.7781 0.600554L11 8.37868L3.22181 0.600474Z" fill="#FF2E00"/>
</svg>
