<svg width="20" height="20" viewBox="0 0 20 20" fill="none" xmlns="http://www.w3.org/2000/svg">
<g id="wb_sunny_24px">
<path id="icon/image/wb_sunny_24px" fill-rule="evenodd" clip-rule="evenodd" d="M9.16732 0.875H10.834V3.33333H9.16732V0.875ZM4.13399 2.95833L5.63399 4.45L4.45065 5.625L2.95899 4.13333L4.13399 2.95833ZM3.33398 9.16667H0.833984V10.8333H3.33398V9.16667ZM17.0403 4.12667L15.8676 2.95417L14.3769 4.44492L15.5495 5.6175L17.0403 4.12667ZM14.3673 15.55L15.859 17.05L17.034 15.875L15.534 14.3833L14.3673 15.55ZM19.1673 9.16667H16.6673V10.8333H19.1673V9.16667ZM10.0006 5C7.24232 5 5.00065 7.24167 5.00065 10C5.00065 12.7583 7.24232 15 10.0006 15C12.759 15 15.0006 12.7583 15.0006 10C15.0006 7.24167 12.759 5 10.0006 5ZM6.66732 10C6.66732 11.8417 8.15899 13.3333 10.0007 13.3333C11.8423 13.3333 13.334 11.8417 13.334 10C13.334 8.15833 11.8423 6.66667 10.0007 6.66667C8.15899 6.66667 6.66732 8.15833 6.66732 10ZM10.834 16.6667V19.125H9.16732V16.6667H10.834ZM4.13399 17.0417L2.95899 15.8667L4.45065 14.3667L5.62566 15.5417L4.13399 17.0417Z" fill="black"/>
</g>
</svg>
