<svg width="528" height="102" viewBox="0 0 528 102" fill="none" xmlns="http://www.w3.org/2000/svg">
<path d="M44.25 28.9688H46.5V56H44.25V28.9688ZM53.25 28.9688H55.5V56H53.25V28.9688ZM48.75 28.9688H51V56H48.75V28.9688ZM42 28.9688V56C38.0417 57.5 33.9375 58.25 29.6875 58.25C26 58.25 22.4688 57.5729 19.0938 56.2188C15.7188 54.8646 12.75 52.9896 10.1875 50.5938C7.625 48.1771 5.57292 45.1979 4.03125 41.6562C2.51042 38.0938 1.75 34.25 1.75 30.125C1.75 26.3125 2.48958 22.6771 3.96875 19.2188C5.46875 15.7396 7.46875 12.75 9.96875 10.25C12.4896 7.72917 15.4792 5.72917 18.9375 4.25C22.4167 2.75 26.0625 2 29.875 2C34.625 2 39.0417 3.10417 43.125 5.3125C47.2083 7.52083 50.5417 10.5208 53.125 14.3125L51.25 15.5312C48.875 12.0521 45.8021 9.30208 42.0312 7.28125C38.2812 5.26042 34.2292 4.25 29.875 4.25C26.375 4.25 23.0208 4.9375 19.8125 6.3125C16.625 7.66667 13.875 9.5 11.5625 11.8125C9.25 14.125 7.40625 16.8854 6.03125 20.0938C4.67708 23.2812 4 26.625 4 30.125C4 33.8958 4.69792 37.4167 6.09375 40.6875C7.51042 43.9583 9.38542 46.6979 11.7188 48.9062C14.0729 51.1146 16.8021 52.8542 19.9062 54.125C23.0104 55.375 26.2396 56 29.5938 56C33.1146 56 36.5 55.4479 39.75 54.3438V52.1875C36.6458 53.2292 33.3854 53.75 29.9688 53.75C27.4896 53.75 25.0729 53.4062 22.7188 52.7188C20.3854 52.0104 18.2188 50.9792 16.2188 49.625C14.2396 48.25 12.5 46.625 11 44.75C9.52083 42.8542 8.35417 40.6562 7.5 38.1562C6.66667 35.6354 6.25 32.9583 6.25 30.125C6.25 25.8542 7.30208 21.9062 9.40625 18.2812C11.5312 14.6562 14.4062 11.7917 18.0312 9.6875C21.6562 7.5625 25.6042 6.5 29.875 6.5C33.875 6.5 37.5938 7.4375 41.0312 9.3125C44.4688 11.1667 47.2708 13.6875 49.4375 16.875L47.5625 18.0938C45.6042 15.2188 43.0625 12.9479 39.9375 11.2812C36.8333 9.59375 33.4792 8.75 29.875 8.75C26.9792 8.75 24.2083 9.3125 21.5625 10.4375C18.9167 11.5625 16.6354 13.0833 14.7188 15C12.8229 16.8958 11.3125 19.1667 10.1875 21.8125C9.0625 24.4583 8.5 27.2292 8.5 30.125C8.5 32.7292 8.875 35.1771 9.625 37.4688C10.3958 39.7396 11.4479 41.7292 12.7812 43.4375C14.1354 45.125 15.7083 46.5833 17.5 47.8125C19.2917 49.0208 21.2396 49.9375 23.3438 50.5625C25.4688 51.1875 27.6458 51.5 29.875 51.5C33.3333 51.5 36.625 50.9167 39.75 49.75V47.5C36.6667 48.6875 33.4479 49.2812 30.0938 49.2812C27.5521 49.2812 25.125 48.8542 22.8125 48C20.5 47.125 18.4375 45.8958 16.625 44.3125C14.8333 42.7292 13.4062 40.7083 12.3438 38.25C11.2812 35.7917 10.75 33.0833 10.75 30.125C10.75 26.6667 11.6042 23.4688 13.3125 20.5312C15.0208 17.5938 17.3438 15.2708 20.2812 13.5625C23.2188 11.8542 26.4167 11 29.875 11C33.1042 11 36.1042 11.75 38.875 13.25C41.6667 14.75 43.9375 16.7917 45.6875 19.375L43.8125 20.5938C42.2708 18.3438 40.2708 16.5625 37.8125 15.25C35.375 13.9167 32.7292 13.25 29.875 13.25C26.8125 13.25 23.9896 14.0104 21.4062 15.5312C18.8229 17.0312 16.7708 19.0729 15.25 21.6562C13.75 24.2396 13 27.0625 13 30.125C13 32.25 13.3021 34.2292 13.9062 36.0625C14.5104 37.8958 15.3438 39.4792 16.4062 40.8125C17.4688 42.1458 18.7083 43.2812 20.125 44.2188C21.5625 45.1562 23.1042 45.8646 24.75 46.3438C26.3958 46.8021 28.1042 47.0312 29.875 47.0312C33.3958 47.0312 36.6875 46.3333 39.75 44.9375V42.7812C36.7917 44.0938 33.5938 44.75 30.1562 44.75C28.1771 44.75 26.3125 44.4479 24.5625 43.8438C22.8125 43.2396 21.2292 42.3542 19.8125 41.1875C18.4167 40.0208 17.3021 38.4896 16.4688 36.5938C15.6562 34.6771 15.25 32.5208 15.25 30.125C15.25 28.1458 15.6354 26.2604 16.4062 24.4688C17.1771 22.6562 18.2188 21.0938 19.5312 19.7812C20.8438 18.4688 22.3958 17.4271 24.1875 16.6562C26 15.8854 27.8958 15.5 29.875 15.5C32.3542 15.5 34.6562 16.0833 36.7812 17.25C38.9062 18.3958 40.6354 19.9583 41.9688 21.9375L40.125 23.1562C39 21.4896 37.5312 20.1771 35.7188 19.2188C33.9271 18.2396 31.9792 17.75 29.875 17.75C26.4583 17.75 23.5417 18.9583 21.125 21.375C18.7083 23.7917 17.5 26.7083 17.5 30.125C17.5 32.2292 17.8438 34.0938 18.5312 35.7188C19.2188 37.3229 20.1562 38.6146 21.3438 39.5938C22.5521 40.5521 23.8854 41.2812 25.3438 41.7812C26.8229 42.2604 28.4062 42.5 30.0938 42.5C33.5521 42.5 36.7708 41.7812 39.75 40.3438V28.9688H42ZM106.062 11H108.312V56H106.062V11ZM61.0312 11H63.2812V56H61.0312V11ZM101.562 11H103.812V56H101.562V11ZM97.0625 11H99.3125V56H97.0625V11ZM92.5625 11H94.8125V56H92.5625V38H76.7812V56H74.5312V11H76.7812V26.75H92.5625V11ZM70.0312 11H72.2812V56H70.0312V11ZM65.5312 11H67.7812V56H65.5312V11ZM92.5625 35.75V33.5H76.7812V35.75H92.5625ZM92.5625 31.25V29H76.7812V31.25H92.5625ZM131.406 27.1562C129.656 28.9062 128.781 31.0208 128.781 33.5C128.781 35.9792 129.656 38.1042 131.406 39.875C133.177 41.625 135.302 42.5 137.781 42.5C140.26 42.5 142.375 41.625 144.125 39.875C145.896 38.1042 146.781 35.9792 146.781 33.5C146.781 31.0208 145.896 28.9062 144.125 27.1562C142.375 25.3854 140.26 24.5 137.781 24.5C135.302 24.5 133.177 25.3854 131.406 27.1562ZM129.812 41.4688C127.625 39.2604 126.531 36.6042 126.531 33.5C126.531 30.3958 127.625 27.75 129.812 25.5625C132.021 23.3542 134.677 22.25 137.781 22.25C140.885 22.25 143.531 23.3542 145.719 25.5625C147.927 27.75 149.031 30.3958 149.031 33.5C149.031 36.6042 147.927 39.2604 145.719 41.4688C143.531 43.6562 140.885 44.75 137.781 44.75C134.677 44.75 132.021 43.6562 129.812 41.4688ZM128.219 23.9688C125.594 26.6146 124.281 29.7917 124.281 33.5C124.281 37.2083 125.594 40.3854 128.219 43.0312C130.865 45.6771 134.052 47 137.781 47C141.51 47 144.688 45.6771 147.312 43.0312C149.958 40.3854 151.281 37.2083 151.281 33.5C151.281 29.7917 149.958 26.6146 147.312 23.9688C144.688 21.3229 141.51 20 137.781 20C134.052 20 130.865 21.3229 128.219 23.9688ZM124.125 41.4062C122.729 38.9896 122.031 36.3542 122.031 33.5C122.031 30.6458 122.729 28.0104 124.125 25.5938C125.542 23.1771 127.458 21.2708 129.875 19.875C132.292 18.4583 134.927 17.75 137.781 17.75C140.635 17.75 143.271 18.4583 145.688 19.875C148.104 21.2708 150.01 23.1771 151.406 25.5938C152.823 28.0104 153.531 30.6458 153.531 33.5C153.531 36.3542 152.823 38.9896 151.406 41.4062C150.01 43.8229 148.104 45.7396 145.688 47.1562C143.271 48.5521 140.635 49.25 137.781 49.25C134.927 49.25 132.292 48.5521 129.875 47.1562C127.458 45.7396 125.542 43.8229 124.125 41.4062ZM121.188 26.5312C120.25 28.7396 119.781 31.0625 119.781 33.5C119.781 35.9375 120.25 38.2708 121.188 40.5C122.146 42.7083 123.427 44.625 125.031 46.25C126.656 47.8542 128.573 49.1354 130.781 50.0938C133.01 51.0312 135.344 51.5 137.781 51.5C140.219 51.5 142.542 51.0312 144.75 50.0938C146.979 49.1354 148.896 47.8542 150.5 46.25C152.125 44.625 153.406 42.7083 154.344 40.5C155.302 38.2708 155.781 35.9375 155.781 33.5C155.781 31.0625 155.302 28.7396 154.344 26.5312C153.406 24.3021 152.125 22.3854 150.5 20.7812C148.896 19.1562 146.979 17.875 144.75 16.9375C142.542 15.9792 140.219 15.5 137.781 15.5C135.344 15.5 133.01 15.9792 130.781 16.9375C128.573 17.875 126.656 19.1562 125.031 20.7812C123.427 22.3854 122.146 24.3021 121.188 26.5312ZM119.125 41.375C118.062 38.875 117.531 36.25 117.531 33.5C117.531 30.75 118.062 28.125 119.125 25.625C120.208 23.125 121.646 20.9792 123.438 19.1875C125.25 17.375 127.406 15.9375 129.906 14.875C132.406 13.7917 135.031 13.25 137.781 13.25C140.531 13.25 143.156 13.7917 145.656 14.875C148.156 15.9375 150.302 17.375 152.094 19.1875C153.906 20.9792 155.344 23.125 156.406 25.625C157.49 28.125 158.031 30.75 158.031 33.5C158.031 36.25 157.49 38.875 156.406 41.375C155.344 43.875 153.906 46.0312 152.094 47.8438C150.302 49.6354 148.156 51.0729 145.656 52.1562C143.156 53.2188 140.531 53.75 137.781 53.75C135.031 53.75 132.406 53.2188 129.906 52.1562C127.406 51.0729 125.25 49.6354 123.438 47.8438C121.646 46.0312 120.208 43.875 119.125 41.375ZM117.062 24.7812C115.875 27.5521 115.281 30.4583 115.281 33.5C115.281 36.5417 115.875 39.4583 117.062 42.25C118.25 45.0208 119.844 47.4167 121.844 49.4375C123.865 51.4375 126.26 53.0312 129.031 54.2188C131.823 55.4062 134.74 56 137.781 56C140.823 56 143.729 55.4062 146.5 54.2188C149.292 53.0312 151.688 51.4375 153.688 49.4375C155.708 47.4167 157.312 45.0208 158.5 42.25C159.688 39.4583 160.281 36.5417 160.281 33.5C160.281 30.4583 159.688 27.5521 158.5 24.7812C157.312 21.9896 155.708 19.5938 153.688 17.5938C151.688 15.5729 149.292 13.9688 146.5 12.7812C143.729 11.5938 140.823 11 137.781 11C134.74 11 131.823 11.5938 129.031 12.7812C126.26 13.9688 123.865 15.5729 121.844 17.5938C119.844 19.5938 118.25 21.9896 117.062 24.7812ZM115 43.125C113.688 40.0625 113.031 36.8542 113.031 33.5C113.031 30.1458 113.688 26.9479 115 23.9062C116.312 20.8438 118.073 18.2083 120.281 16C122.49 13.7917 125.115 12.0312 128.156 10.7188C131.219 9.40625 134.427 8.75 137.781 8.75C141.135 8.75 144.333 9.40625 147.375 10.7188C150.438 12.0312 153.073 13.7917 155.281 16C157.49 18.2083 159.25 20.8438 160.562 23.9062C161.875 26.9479 162.531 30.1458 162.531 33.5C162.531 36.8542 161.875 40.0625 160.562 43.125C159.25 46.1667 157.49 48.7917 155.281 51C153.073 53.2083 150.438 54.9688 147.375 56.2812C144.333 57.5938 141.135 58.25 137.781 58.25C134.427 58.25 131.219 57.5938 128.156 56.2812C125.115 54.9688 122.49 53.2083 120.281 51C118.073 48.7917 116.312 46.1667 115 43.125ZM188.281 34.5938H184.719C180.344 34.5938 176.979 33.7083 174.625 31.9375C172.271 30.1458 171.094 27.6875 171.094 24.5625C171.094 21.6458 172.479 19.2188 175.25 17.2812C178.021 15.3229 181.906 14.3438 186.906 14.3438C190.24 14.3438 193.344 14.8021 196.219 15.7188C199.115 16.6354 201.521 17.9271 203.438 19.5938L201.688 21C199.979 19.6042 197.833 18.5208 195.25 17.75C192.667 16.9792 189.885 16.5938 186.906 16.5938C182.51 16.5938 179.146 17.3438 176.812 18.8438C174.5 20.3438 173.344 22.25 173.344 24.5625C173.344 27.0625 174.292 28.9896 176.188 30.3438C178.104 31.6771 180.948 32.3438 184.719 32.3438H188.156C192.594 32.3438 195.99 33.2396 198.344 35.0312C200.719 36.8021 201.906 39.25 201.906 42.375C201.906 45.2917 200.521 47.7292 197.75 49.6875C194.979 51.625 191.094 52.5938 186.094 52.5938C182.76 52.5938 179.646 52.1354 176.75 51.2188C173.875 50.3021 171.479 49.0104 169.562 47.3438L171.312 45.9375C173.021 47.3333 175.167 48.4167 177.75 49.1875C180.333 49.9583 183.115 50.3438 186.094 50.3438C190.49 50.3438 193.844 49.5938 196.156 48.0938C198.49 46.5938 199.656 44.6875 199.656 42.375C199.656 39.875 198.698 37.9583 196.781 36.625C194.885 35.2708 192.052 34.5938 188.281 34.5938ZM188.281 39.0938H184.719C178.927 39.0938 174.458 37.7812 171.312 35.1562C168.167 32.5104 166.594 28.9792 166.594 24.5625C166.594 22.5417 167.042 20.6458 167.938 18.875C168.833 17.1042 170.115 15.5521 171.781 14.2188C173.469 12.8646 175.615 11.8021 178.219 11.0312C180.823 10.2396 183.719 9.84375 186.906 9.84375C190.927 9.84375 194.688 10.4583 198.188 11.6875C201.688 12.8958 204.604 14.5938 206.938 16.7812L205.125 18.125C203 16.2083 200.344 14.7292 197.156 13.6875C193.969 12.625 190.552 12.0938 186.906 12.0938C181.281 12.0938 176.865 13.2812 173.656 15.6562C170.448 18.0312 168.844 21 168.844 24.5625C168.844 28.3333 170.219 31.3229 172.969 33.5312C175.719 35.7396 179.635 36.8438 184.719 36.8438H188.156C194.323 36.8438 197.406 38.6875 197.406 42.375C197.406 44.0417 196.458 45.4167 194.562 46.5C192.688 47.5625 189.865 48.0938 186.094 48.0938C183.448 48.0938 180.99 47.7917 178.719 47.1875C176.448 46.5625 174.573 45.6771 173.094 44.5312L174.875 43.1562C177.479 44.9479 181.219 45.8438 186.094 45.8438C189.219 45.8438 191.51 45.5208 192.969 44.875C194.427 44.2292 195.156 43.3958 195.156 42.375C195.156 41.1875 194.646 40.3438 193.625 39.8438C192.604 39.3438 190.823 39.0938 188.281 39.0938ZM188.281 30.0938H184.719C178.635 30.0938 175.594 28.25 175.594 24.5625C175.594 22.8958 176.531 21.5312 178.406 20.4688C180.302 19.3854 183.135 18.8438 186.906 18.8438C189.552 18.8438 192.01 19.1562 194.281 19.7812C196.552 20.3854 198.427 21.2604 199.906 22.4062L198.125 23.7812C195.521 21.9896 191.781 21.0938 186.906 21.0938C183.781 21.0938 181.49 21.4167 180.031 22.0625C178.573 22.7083 177.844 23.5417 177.844 24.5625C177.844 25.75 178.354 26.5938 179.375 27.0938C180.396 27.5938 182.177 27.8438 184.719 27.8438H188.281C194.073 27.8438 198.542 29.1667 201.688 31.8125C204.833 34.4375 206.406 37.9583 206.406 42.375C206.406 44.3958 205.958 46.2917 205.062 48.0625C204.167 49.8333 202.875 51.3958 201.188 52.75C199.521 54.0833 197.385 55.1458 194.781 55.9375C192.177 56.7083 189.281 57.0938 186.094 57.0938C182.073 57.0938 178.312 56.4896 174.812 55.2812C171.312 54.0521 168.396 52.3438 166.062 50.1562L167.875 48.8125C170 50.7292 172.656 52.2188 175.844 53.2812C179.031 54.3229 182.448 54.8438 186.094 54.8438C191.719 54.8438 196.135 53.6562 199.344 51.2812C202.552 48.9062 204.156 45.9375 204.156 42.375C204.156 38.6042 202.781 35.6146 200.031 33.4062C197.281 31.1979 193.365 30.0938 188.281 30.0938ZM219.312 23.4688H221.562V56H219.312V23.4688ZM210.312 13.25V11H244.062V13.25H210.312ZM210.312 17.75V15.5H244.062V17.75H210.312ZM210.312 22.25V20H244.062V22.25H210.312ZM232.812 23.4688H235.062V56H232.812V23.4688ZM228.312 23.4688H230.562V56H228.312V23.4688ZM223.812 23.4688H226.062V56H223.812V23.4688ZM248.938 26.75V24.5H273.688V26.75H248.938ZM248.938 31.25V29H273.688V31.25H248.938ZM248.938 35.75V33.5H273.688V35.75H248.938ZM278.344 6.5V4.25H312.094V6.5H278.344ZM278.344 11V8.75H312.094V11H278.344ZM278.344 15.5V13.25H312.094V15.5H303.094V56H300.844V15.5H298.594V56H296.344V15.5H294.094V56H291.844V15.5H289.594V56H287.344V15.5H278.344ZM362.25 11H364.5V56H362.25V11ZM317.219 11H319.469V56H317.219V11ZM357.75 11H360V56H357.75V11ZM353.25 11H355.5V56H353.25V11ZM348.75 11H351V56H348.75V38H332.969V56H330.719V11H332.969V26.75H348.75V11ZM326.219 11H328.469V56H326.219V11ZM321.719 11H323.969V56H321.719V11ZM348.75 35.75V33.5H332.969V35.75H348.75ZM348.75 31.25V29H332.969V31.25H348.75ZM381.656 56H379.406V11H381.656V56ZM377.156 56H374.906V11H377.156V56ZM372.656 56H370.406V11H372.656V56ZM386.156 44.75H407.688V47H386.156V49.25H407.688V51.5H386.156V53.75H407.688V56H383.906V11H407.688V13.25H386.156V15.5H407.688V17.75H386.156V20H407.688V22.25H386.156V27.8438H406.438V30.0938H386.156V32.3438H406.438V34.5938H386.156V36.8438H406.438V39.0938H386.156V44.75ZM441.844 27.875V56H439.594V27.875C439.594 27.2708 439.49 26.7604 439.281 26.3438C439.094 25.9062 438.844 25.5729 438.531 25.3438C438.219 25.1146 437.802 24.9375 437.281 24.8125C436.781 24.6667 436.292 24.5833 435.812 24.5625C435.333 24.5208 434.74 24.5 434.031 24.5C433.323 24.5 432.729 24.5208 432.25 24.5625C431.771 24.5833 431.271 24.6667 430.75 24.8125C430.25 24.9375 429.844 25.1146 429.531 25.3438C429.219 25.5729 428.958 25.9062 428.75 26.3438C428.562 26.7604 428.469 27.2708 428.469 27.875V56H426.219V27.875C426.219 24.125 428.823 22.25 434.031 22.25C439.24 22.25 441.844 24.125 441.844 27.875ZM446.344 27.875V56H444.094V27.875C444.094 25.2292 443.156 23.2604 441.281 21.9688C439.427 20.6562 437.01 20 434.031 20C431.052 20 428.625 20.6562 426.75 21.9688C424.896 23.2604 423.969 25.2292 423.969 27.875V56H421.719V27.875C421.719 25.6875 422.281 23.8125 423.406 22.25C424.531 20.6875 426 19.5521 427.812 18.8438C429.646 18.1146 431.719 17.75 434.031 17.75C436.344 17.75 438.406 18.1146 440.219 18.8438C442.052 19.5521 443.531 20.6875 444.656 22.25C445.781 23.8125 446.344 25.6875 446.344 27.875ZM450.844 27.875V56H448.594V27.875C448.594 25.9167 448.208 24.1458 447.438 22.5625C446.688 20.9792 445.646 19.6771 444.312 18.6562C442.979 17.6354 441.438 16.8542 439.688 16.3125C437.938 15.7708 436.052 15.5 434.031 15.5C432.01 15.5 430.125 15.7708 428.375 16.3125C426.625 16.8542 425.083 17.6354 423.75 18.6562C422.417 19.6771 421.365 20.9792 420.594 22.5625C419.844 24.1458 419.469 25.9167 419.469 27.875V56H417.219V27.875C417.219 25.6042 417.656 23.5417 418.531 21.6875C419.427 19.8333 420.635 18.3021 422.156 17.0938C423.677 15.8646 425.458 14.9167 427.5 14.25C429.542 13.5833 431.719 13.25 434.031 13.25C436.344 13.25 438.521 13.5833 440.562 14.25C442.604 14.9167 444.385 15.8646 445.906 17.0938C447.427 18.3021 448.625 19.8333 449.5 21.6875C450.396 23.5417 450.844 25.6042 450.844 27.875ZM455.344 56H453.094V27.875C453.094 25.6042 452.583 23.4271 451.562 21.3438C450.562 19.2604 449.208 17.4688 447.5 15.9688C445.792 14.4479 443.76 13.2396 441.406 12.3438C439.052 11.4479 436.594 11 434.031 11C430.51 11 427.312 11.6667 424.438 13C421.583 14.3125 419.292 16.2708 417.562 18.875C415.833 21.4583 414.969 24.4583 414.969 27.875V56H412.719V27.875C412.719 25 413.281 22.3542 414.406 19.9375C415.531 17.5208 417.052 15.5 418.969 13.875C420.906 12.25 423.167 10.9896 425.75 10.0938C428.354 9.19792 431.115 8.75 434.031 8.75C439.198 8.75 443.677 10.0521 447.469 12.6562C451.26 10.0521 455.74 8.75 460.906 8.75C463.823 8.75 466.573 9.19792 469.156 10.0938C471.76 10.9896 474.021 12.25 475.938 13.875C477.875 15.5 479.406 17.5208 480.531 19.9375C481.656 22.3542 482.219 25 482.219 27.875V56H479.969V27.875C479.969 24.4792 479.104 21.4896 477.375 18.9062C475.646 16.3021 473.344 14.3333 470.469 13C467.615 11.6667 464.427 11 460.906 11C456.49 11 452.635 12.0417 449.344 14.125C449.823 14.5417 450.354 15.0833 450.938 15.75C453.792 14.0833 457.115 13.25 460.906 13.25C463.219 13.25 465.396 13.5833 467.438 14.25C469.479 14.9167 471.26 15.8646 472.781 17.0938C474.302 18.3021 475.5 19.8333 476.375 21.6875C477.271 23.5417 477.719 25.6042 477.719 27.875V56H475.469V27.875C475.469 25.9167 475.083 24.1458 474.312 22.5625C473.562 20.9792 472.521 19.6771 471.188 18.6562C469.854 17.6354 468.312 16.8542 466.562 16.3125C464.812 15.7708 462.927 15.5 460.906 15.5C457.594 15.5 454.729 16.1771 452.312 17.5312C452.688 18.1146 453.062 18.7604 453.438 19.4688C455.479 18.3229 457.969 17.75 460.906 17.75C463.219 17.75 465.281 18.1146 467.094 18.8438C468.927 19.5521 470.406 20.6875 471.531 22.25C472.656 23.8125 473.219 25.6875 473.219 27.875V56H470.969V27.875C470.969 25.2292 470.031 23.2604 468.156 21.9688C466.302 20.6562 463.885 20 460.906 20C458.198 20 456 20.5 454.312 21.5C454.583 22.2917 454.792 23.0417 454.938 23.75C456.25 22.75 458.24 22.25 460.906 22.25C466.115 22.25 468.719 24.125 468.719 27.875V56H466.469V27.875C466.469 27.2708 466.365 26.7604 466.156 26.3438C465.969 25.9062 465.719 25.5729 465.406 25.3438C465.094 25.1146 464.677 24.9375 464.156 24.8125C463.656 24.6667 463.167 24.5833 462.688 24.5625C462.208 24.5208 461.615 24.5 460.906 24.5C460.198 24.5 459.604 24.5208 459.125 24.5625C458.646 24.5833 458.146 24.6667 457.625 24.8125C457.125 24.9375 456.719 25.1146 456.406 25.3438C456.094 25.5729 455.833 25.9062 455.625 26.3438C455.438 26.7604 455.344 27.2708 455.344 27.875V56ZM499.094 56H496.844V11H499.094V56ZM494.594 56H492.344V11H494.594V56ZM490.094 56H487.844V11H490.094V56ZM503.594 44.75H525.125V47H503.594V49.25H525.125V51.5H503.594V53.75H525.125V56H501.344V11H525.125V13.25H503.594V15.5H525.125V17.75H503.594V20H525.125V22.25H503.594V27.8438H523.875V30.0938H503.594V32.3438H523.875V34.5938H503.594V36.8438H523.875V39.0938H503.594V44.75Z" fill="black"/>
<path d="M6.64062 83.9375V94H3.8125V72.2656H16.2344V74.4375H6.64062V81.75H13.1719V83.9375H6.64062ZM19.1875 94V79.3438H21.7031V82.0312C22.0781 81.2188 22.6094 80.5208 23.2969 79.9375C23.9948 79.3542 24.7812 79.0625 25.6562 79.0625C26.5417 79.0625 27.2656 79.2188 27.8281 79.5312C28.401 79.8333 28.7812 80.1562 28.9688 80.5L27.9062 82.0938C27.7604 81.9062 27.6198 81.75 27.4844 81.625C27.099 81.25 26.5312 81.0625 25.7812 81.0625C25.0312 81.0625 24.3542 81.3021 23.75 81.7812C23.1458 82.2708 22.6667 82.8646 22.3125 83.5625C21.9583 84.2604 21.7552 84.9583 21.7031 85.6562V94H19.1875ZM37.4062 81.0625C35.9583 81.0625 34.875 81.5 34.1562 82.375C33.6562 82.9792 33.3281 83.8333 33.1719 84.9375H40.75C40.6562 83.8021 40.3177 82.8698 39.7344 82.1406C39.1406 81.4219 38.3646 81.0625 37.4062 81.0625ZM42.6875 93.1406C41.5625 93.901 40.0417 94.2812 38.125 94.2812C35.6979 94.2812 33.8281 93.5885 32.5156 92.2031C31.2031 90.8177 30.5469 88.974 30.5469 86.6719C30.5469 83.6719 31.5208 81.5 33.4688 80.1562C34.5521 79.4271 35.7604 79.0625 37.0938 79.0625C39.1562 79.0625 40.7188 79.7604 41.7812 81.1562C42.6771 82.3542 43.1562 83.9271 43.2188 85.875L42.8438 86.8125H33.0625C33.0833 88.5417 33.5469 89.8854 34.4531 90.8438C35.3594 91.7917 36.5677 92.2656 38.0781 92.2656C39.224 92.2656 40.5365 91.9583 42.0156 91.3438L42.6875 93.1406ZM52.0938 81.0625C50.6458 81.0625 49.5625 81.5 48.8438 82.375C48.3438 82.9792 48.0156 83.8333 47.8594 84.9375H55.4375C55.3438 83.8021 55.0052 82.8698 54.4219 82.1406C53.8281 81.4219 53.0521 81.0625 52.0938 81.0625ZM57.375 93.1406C56.25 93.901 54.7292 94.2812 52.8125 94.2812C50.3854 94.2812 48.5156 93.5885 47.2031 92.2031C45.8906 90.8177 45.2344 88.974 45.2344 86.6719C45.2344 83.6719 46.2083 81.5 48.1562 80.1562C49.2396 79.4271 50.4479 79.0625 51.7812 79.0625C53.8438 79.0625 55.4062 79.7604 56.4688 81.1562C57.3646 82.3542 57.8438 83.9271 57.9062 85.875L57.5312 86.8125H47.75C47.7708 88.5417 48.2344 89.8854 49.1406 90.8438C50.0469 91.7917 51.2552 92.2656 52.7656 92.2656C53.9115 92.2656 55.224 91.9583 56.7031 91.3438L57.375 93.1406ZM62.1719 94.4219C62.1719 94.2344 61.9167 94.0208 61.4062 93.7812C61.2188 93.6875 61.0417 93.5104 60.875 93.25C60.7188 92.9896 60.6406 92.651 60.6406 92.2344C60.6406 91.8177 60.8021 91.4271 61.125 91.0625C61.4583 90.6875 61.875 90.5 62.375 90.5C62.875 90.5 63.2656 90.5938 63.5469 90.7812C63.8385 90.9583 64.0417 91.1927 64.1562 91.4844C64.3542 91.9844 64.4531 92.5521 64.4531 93.1875C64.4531 94.8438 63.4427 96.6458 61.4219 98.5938L60.1406 97.4688C61.4948 96.1771 62.1719 95.1615 62.1719 94.4219ZM77.9062 72.5625C79.9271 72.1771 81.6042 71.9844 82.9375 71.9844C84.2812 71.9844 85.4271 72.1094 86.375 72.3594C87.3333 72.599 88.1094 72.9219 88.7031 73.3281C89.3073 73.7344 89.8021 74.2188 90.1875 74.7812C90.9062 75.8229 91.2656 77.0417 91.2656 78.4375C91.2656 80.3438 90.5365 81.9167 89.0781 83.1562C87.6198 84.3854 85.724 85 83.3906 85H80.7344V94H77.9062V72.5625ZM80.7344 74.4375V82.8125H81.7656C84.0781 82.8125 85.7396 82.474 86.75 81.7969C87.7604 81.1094 88.2656 80.0469 88.2656 78.6094C88.2656 77.1615 87.8438 76.0573 87 75.2969C86.1458 74.5365 84.8854 74.1562 83.2188 74.1562C82.3229 74.1562 81.4948 74.25 80.7344 74.4375ZM94.5938 94V79.3438H97.1094V82.0312C97.4844 81.2188 98.0156 80.5208 98.7031 79.9375C99.401 79.3542 100.188 79.0625 101.062 79.0625C101.948 79.0625 102.672 79.2188 103.234 79.5312C103.807 79.8333 104.188 80.1562 104.375 80.5L103.312 82.0938C103.167 81.9062 103.026 81.75 102.891 81.625C102.505 81.25 101.938 81.0625 101.188 81.0625C100.438 81.0625 99.7604 81.3021 99.1562 81.7812C98.5521 82.2708 98.0729 82.8646 97.7188 83.5625C97.3646 84.2604 97.1615 84.9583 97.1094 85.6562V94H94.5938ZM112.812 81.0625C111.365 81.0625 110.281 81.5 109.562 82.375C109.062 82.9792 108.734 83.8333 108.578 84.9375H116.156C116.062 83.8021 115.724 82.8698 115.141 82.1406C114.547 81.4219 113.771 81.0625 112.812 81.0625ZM118.094 93.1406C116.969 93.901 115.448 94.2812 113.531 94.2812C111.104 94.2812 109.234 93.5885 107.922 92.2031C106.609 90.8177 105.953 88.974 105.953 86.6719C105.953 83.6719 106.927 81.5 108.875 80.1562C109.958 79.4271 111.167 79.0625 112.5 79.0625C114.562 79.0625 116.125 79.7604 117.188 81.1562C118.083 82.3542 118.562 83.9271 118.625 85.875L118.25 86.8125H108.469C108.49 88.5417 108.953 89.8854 109.859 90.8438C110.766 91.7917 111.974 92.2656 113.484 92.2656C114.63 92.2656 115.943 91.9583 117.422 91.3438L118.094 93.1406ZM131.359 86.6719C131.359 82.9323 130.245 81.0625 128.016 81.0625C127.411 81.0625 126.865 81.2865 126.375 81.7344C125.885 82.1823 125.51 82.7292 125.25 83.375C124.927 84.0312 124.766 84.7135 124.766 85.4219V94H122.25V79.3438H124.766V81.6719C125.089 80.9115 125.562 80.2865 126.188 79.7969C126.823 79.3073 127.609 79.0625 128.547 79.0625C130.901 79.0625 132.464 80.2344 133.234 82.5781C134.057 80.2344 135.505 79.0625 137.578 79.0625C139.297 79.0625 140.599 79.7031 141.484 80.9844C142.38 82.2656 142.828 84.1615 142.828 86.6719V93.9844L140.391 94V86.6719C140.391 82.9323 139.276 81.0625 137.047 81.0625C136.443 81.0625 135.896 81.2865 135.406 81.7344C134.917 82.1823 134.542 82.7292 134.281 83.375C133.958 84.0312 133.797 84.7135 133.797 85.4219V94H131.359V86.6719ZM151.391 79.3438V94H148.875V81.3438H146.281V79.3438H151.391ZM148.281 73.5469C148.281 73.026 148.458 72.5833 148.812 72.2188C149.177 71.8438 149.615 71.6562 150.125 71.6562C150.635 71.6562 151.068 71.8438 151.422 72.2188C151.786 72.5833 151.969 73.026 151.969 73.5469C151.969 74.0677 151.786 74.5156 151.422 74.8906C151.068 75.2552 150.635 75.4375 150.125 75.4375C149.615 75.4375 149.177 75.2552 148.812 74.8906C148.458 74.5156 148.281 74.0677 148.281 73.5469ZM166.406 91.3125C165.469 93.2917 163.943 94.2812 161.828 94.2812C160.974 94.2812 160.203 94.0938 159.516 93.7188C158.839 93.3333 158.302 92.9219 157.906 92.4844C157.521 92.0469 157.198 91.4531 156.938 90.7031C156.667 89.9531 156.531 89.099 156.531 88.1406V79.3438H159.047V87.2656C159.047 90.6094 160.245 92.2812 162.641 92.2812C163.255 92.2812 163.818 92.1146 164.328 91.7812C165.109 91.2812 165.724 90.4583 166.172 89.3125C166.328 88.9167 166.406 88.6042 166.406 88.375V79.3438H168.922V94H166.406V91.3125ZM183.172 86.6719C183.172 82.9323 182.057 81.0625 179.828 81.0625C179.224 81.0625 178.677 81.2865 178.188 81.7344C177.698 82.1823 177.323 82.7292 177.062 83.375C176.74 84.0312 176.578 84.7135 176.578 85.4219V94H174.062V79.3438H176.578V81.6719C176.901 80.9115 177.375 80.2865 178 79.7969C178.635 79.3073 179.422 79.0625 180.359 79.0625C182.714 79.0625 184.276 80.2344 185.047 82.5781C185.87 80.2344 187.318 79.0625 189.391 79.0625C191.109 79.0625 192.411 79.7031 193.297 80.9844C194.193 82.2656 194.641 84.1615 194.641 86.6719V93.9844L192.203 94V86.6719C192.203 82.9323 191.089 81.0625 188.859 81.0625C188.255 81.0625 187.708 81.2865 187.219 81.7344C186.729 82.1823 186.354 82.7292 186.094 83.375C185.771 84.0312 185.609 84.7135 185.609 85.4219V94H183.172V86.6719ZM213.375 82.8438C212.354 83.3333 211.536 84.0625 210.922 85.0312C210.318 85.9896 210.016 87.0521 210.016 88.2188C210.016 89.3854 210.469 90.3542 211.375 91.125C212.281 91.8854 213.307 92.2656 214.453 92.2656C215.599 92.2656 216.682 92.0625 217.703 91.6562C218.734 91.2396 219.5 90.6927 220 90.0156L213.375 82.8438ZM212.125 81.0625C211.333 79.8854 210.938 78.5625 210.938 77.0938C210.938 75.6146 211.432 74.4531 212.422 73.6094C213.411 72.7656 214.583 72.3438 215.938 72.3438C217.979 72.3438 219.688 72.8125 221.062 73.75L220.438 75.9375C220.167 75.6979 219.589 75.375 218.703 74.9688C217.828 74.5625 217.057 74.3594 216.391 74.3594C215.734 74.3594 215.208 74.526 214.812 74.8594C214.146 75.4219 213.812 76.2969 213.812 77.4844C213.812 78.6719 214.26 79.8646 215.156 81.0625C216.667 83.0729 218.781 85.4375 221.5 88.1562C222.104 87.2396 222.688 85.9219 223.25 84.2031C223.812 82.474 224.188 80.9479 224.375 79.625L226.031 80.6875C225.896 81.9688 225.484 83.5208 224.797 85.3438C224.109 87.1562 223.427 88.5521 222.75 89.5312L226.922 94H223.625L221.312 91.5C221 91.75 220.708 92.0052 220.438 92.2656C220.177 92.526 219.859 92.776 219.484 93.0156C219.109 93.2552 218.714 93.4688 218.297 93.6562C217.37 94.0729 216.302 94.2812 215.094 94.2812C213.896 94.2812 212.875 94.1615 212.031 93.9219C211.198 93.6719 210.438 93.3125 209.75 92.8438C209.062 92.3646 208.516 91.724 208.109 90.9219C207.703 90.1198 207.5 89.1979 207.5 88.1562C207.5 87.1146 207.729 86.1198 208.188 85.1719C208.656 84.2135 209.214 83.4219 209.859 82.7969C210.516 82.1719 211.271 81.5938 212.125 81.0625ZM249.875 92.0938C251.698 92.0938 253.458 91.4531 255.156 90.1719L256.531 92.0312C255.427 92.8333 254.516 93.3698 253.797 93.6406C252.651 94.0677 251.078 94.2812 249.078 94.2812C247.078 94.2812 245.312 93.8125 243.781 92.875C242.25 91.9375 241.083 90.6302 240.281 88.9531C239.479 87.2656 239.078 85.3229 239.078 83.125C239.078 80.9271 239.479 78.9896 240.281 77.3125C241.083 75.6354 242.25 74.3281 243.781 73.3906C245.312 72.4531 247.099 71.9844 249.141 71.9844C251.089 71.9844 252.453 72.1302 253.234 72.4219C254.026 72.7135 254.62 72.9792 255.016 73.2188C255.411 73.4479 255.917 73.7865 256.531 74.2344L255.156 76.0938C253.458 74.8125 251.698 74.1719 249.875 74.1719H249.688C248.521 74.1719 247.427 74.4219 246.406 74.9219C244.521 75.8385 243.203 77.4635 242.453 79.7969C242.099 80.8698 241.922 81.9844 241.922 83.1406C241.922 84.2969 242.094 85.4115 242.438 86.4844C242.792 87.5469 243.281 88.5 243.906 89.3438C245.292 91.1771 247.219 92.0938 249.688 92.0938H249.875ZM270.375 91.3125C269.438 93.2917 267.911 94.2812 265.797 94.2812C264.943 94.2812 264.172 94.0938 263.484 93.7188C262.807 93.3333 262.271 92.9219 261.875 92.4844C261.49 92.0469 261.167 91.4531 260.906 90.7031C260.635 89.9531 260.5 89.099 260.5 88.1406V79.3438H263.016V87.2656C263.016 90.6094 264.214 92.2812 266.609 92.2812C267.224 92.2812 267.786 92.1146 268.297 91.7812C269.078 91.2812 269.693 90.4583 270.141 89.3125C270.297 88.9167 270.375 88.6042 270.375 88.375V79.3438H272.891V94H270.375V91.3125ZM281.438 92.2656C283.24 92.2656 284.141 91.4896 284.141 89.9375C284.141 89 283.281 88.25 281.562 87.6875L280.031 87.1562C278.938 86.7708 278.125 86.224 277.594 85.5156C277.073 84.7969 276.812 83.9531 276.812 82.9844C276.812 82.0052 277.266 81.1094 278.172 80.2969C279.078 79.474 280.24 79.0625 281.656 79.0625C282.594 79.0625 283.427 79.1875 284.156 79.4375C284.885 79.6771 285.448 79.9531 285.844 80.2656L284.953 82.1406C284.63 81.8802 284.172 81.6354 283.578 81.4062C282.984 81.1771 282.344 81.0625 281.656 81.0625C280.979 81.0625 280.422 81.2656 279.984 81.6719C279.547 82.0781 279.328 82.5312 279.328 83.0312C279.328 83.5312 279.495 83.9479 279.828 84.2812C280.161 84.6146 280.833 84.9583 281.844 85.3125L283.375 85.8438C284.49 86.2292 285.318 86.7344 285.859 87.3594C286.391 87.9948 286.656 88.9115 286.656 90.1094C286.656 91.3073 286.198 92.3021 285.281 93.0938C284.365 93.8854 283.115 94.2812 281.531 94.2812C280.688 94.2812 279.875 94.1927 279.094 94.0156C278.323 93.849 277.458 93.4896 276.5 92.9375L277.406 91C278.208 91.4792 278.891 91.8125 279.453 92C280.016 92.1771 280.677 92.2656 281.438 92.2656ZM294.125 94.2812C291.646 94.2812 290.406 92.9062 290.406 90.1562V81.3438H287.812V79.3438H290.406V76.375L292.922 75.4375V79.3438H296.5V81.3438H292.922V90C292.922 90.8021 293.125 91.3802 293.531 91.7344C293.938 92.0781 294.391 92.25 294.891 92.25C295.859 92.25 296.615 92.1667 297.156 92L297.469 93.7656C296.51 94.1094 295.396 94.2812 294.125 94.2812ZM301.625 86.6719C301.625 87.6823 301.75 88.5677 302 89.3281C302.26 90.0781 302.604 90.6615 303.031 91.0781C303.469 91.4844 303.938 91.7865 304.438 91.9844C304.948 92.1719 305.49 92.2656 306.062 92.2656C307.229 92.2656 308.234 91.8646 309.078 91.0625C310.005 90.1771 310.469 88.7135 310.469 86.6719C310.469 84.6406 310.005 83.1719 309.078 82.2656C308.224 81.474 307.219 81.0781 306.062 81.0781C304.885 81.0781 303.88 81.474 303.047 82.2656C302.099 83.1719 301.625 84.6406 301.625 86.6719ZM299.109 86.6719C299.109 83.5156 300.125 81.3177 302.156 80.0781C303.281 79.401 304.583 79.0625 306.062 79.0625C307.531 79.0625 308.839 79.401 309.984 80.0781C310.589 80.4531 311.115 80.9219 311.562 81.4844C312.531 82.7552 313.016 84.4844 313.016 86.6719C313.016 89.8385 312.005 92.0312 309.984 93.25C308.859 93.9375 307.552 94.2812 306.062 94.2812C304.562 94.2812 303.26 93.9375 302.156 93.25C301.542 92.8854 301.01 92.4167 300.562 91.8438C299.594 90.6042 299.109 88.8802 299.109 86.6719ZM325.641 86.6719C325.641 82.9323 324.526 81.0625 322.297 81.0625C321.693 81.0625 321.146 81.2865 320.656 81.7344C320.167 82.1823 319.792 82.7292 319.531 83.375C319.208 84.0312 319.047 84.7135 319.047 85.4219V94H316.531V79.3438H319.047V81.6719C319.37 80.9115 319.844 80.2865 320.469 79.7969C321.104 79.3073 321.891 79.0625 322.828 79.0625C325.182 79.0625 326.745 80.2344 327.516 82.5781C328.339 80.2344 329.786 79.0625 331.859 79.0625C333.578 79.0625 334.88 79.7031 335.766 80.9844C336.661 82.2656 337.109 84.1615 337.109 86.6719V93.9844L334.672 94V86.6719C334.672 82.9323 333.557 81.0625 331.328 81.0625C330.724 81.0625 330.177 81.2865 329.688 81.7344C329.198 82.1823 328.823 82.7292 328.562 83.375C328.24 84.0312 328.078 84.7135 328.078 85.4219V94H325.641V86.6719ZM349.547 83.125C349.547 80.9271 350 78.9896 350.906 77.3125C351.802 75.6354 353.104 74.3281 354.812 73.3906C356.521 72.4531 358.521 71.9844 360.812 71.9844C362.781 71.9844 364.214 72.1458 365.109 72.4688C366.005 72.7812 366.661 73.0521 367.078 73.2812C367.505 73.5 368.052 73.8229 368.719 74.25L367.625 76.3281C365.396 74.8906 363.146 74.1719 360.875 74.1719C359.604 74.1719 358.438 74.4219 357.375 74.9219C355.344 75.8698 353.927 77.4844 353.125 79.7656C352.74 80.8385 352.547 81.8958 352.547 82.9375C352.547 86.0312 353.505 88.4688 355.422 90.25C356.693 91.4792 358.281 92.0938 360.188 92.0938H360.375C362.062 92.0938 363.776 91.7031 365.516 90.9219V85.7812H360.875V83.6094L368.344 83.5938L368.328 92.0312C366.109 93.5312 363.401 94.2812 360.203 94.2812C357.005 94.2812 354.427 93.2552 352.469 91.2031C350.521 89.151 349.547 86.4583 349.547 83.125ZM383.656 86.0781C383.656 82.7344 382.458 81.0625 380.062 81.0625C379.448 81.0625 378.885 81.2292 378.375 81.5625C377.594 82.0625 376.979 82.8854 376.531 84.0312C376.375 84.4271 376.297 84.7396 376.297 84.9688V94H373.781V70.9531H376.297V82.0312C377.234 80.0521 378.76 79.0625 380.875 79.0625C381.729 79.0625 382.495 79.2552 383.172 79.6406C383.859 80.0156 384.396 80.4219 384.781 80.8594C385.708 81.8906 386.172 83.3385 386.172 85.2031V94H383.656V86.0781ZM392.219 86.6719C392.219 87.6823 392.344 88.5677 392.594 89.3281C392.854 90.0781 393.198 90.6615 393.625 91.0781C394.062 91.4844 394.531 91.7865 395.031 91.9844C395.542 92.1719 396.083 92.2656 396.656 92.2656C397.823 92.2656 398.828 91.8646 399.672 91.0625C400.599 90.1771 401.062 88.7135 401.062 86.6719C401.062 84.6406 400.599 83.1719 399.672 82.2656C398.818 81.474 397.812 81.0781 396.656 81.0781C395.479 81.0781 394.474 81.474 393.641 82.2656C392.693 83.1719 392.219 84.6406 392.219 86.6719ZM389.703 86.6719C389.703 83.5156 390.719 81.3177 392.75 80.0781C393.875 79.401 395.177 79.0625 396.656 79.0625C398.125 79.0625 399.432 79.401 400.578 80.0781C401.182 80.4531 401.708 80.9219 402.156 81.4844C403.125 82.7552 403.609 84.4844 403.609 86.6719C403.609 89.8385 402.599 92.0312 400.578 93.25C399.453 93.9375 398.146 94.2812 396.656 94.2812C395.156 94.2812 393.854 93.9375 392.75 93.25C392.135 92.8854 391.604 92.4167 391.156 91.8438C390.188 90.6042 389.703 88.8802 389.703 86.6719ZM410.531 92.2656C412.333 92.2656 413.234 91.4896 413.234 89.9375C413.234 89 412.375 88.25 410.656 87.6875L409.125 87.1562C408.031 86.7708 407.219 86.224 406.688 85.5156C406.167 84.7969 405.906 83.9531 405.906 82.9844C405.906 82.0052 406.359 81.1094 407.266 80.2969C408.172 79.474 409.333 79.0625 410.75 79.0625C411.688 79.0625 412.521 79.1875 413.25 79.4375C413.979 79.6771 414.542 79.9531 414.938 80.2656L414.047 82.1406C413.724 81.8802 413.266 81.6354 412.672 81.4062C412.078 81.1771 411.438 81.0625 410.75 81.0625C410.073 81.0625 409.516 81.2656 409.078 81.6719C408.641 82.0781 408.422 82.5312 408.422 83.0312C408.422 83.5312 408.589 83.9479 408.922 84.2812C409.255 84.6146 409.927 84.9583 410.938 85.3125L412.469 85.8438C413.583 86.2292 414.411 86.7344 414.953 87.3594C415.484 87.9948 415.75 88.9115 415.75 90.1094C415.75 91.3073 415.292 92.3021 414.375 93.0938C413.458 93.8854 412.208 94.2812 410.625 94.2812C409.781 94.2812 408.969 94.1927 408.188 94.0156C407.417 93.849 406.552 93.4896 405.594 92.9375L406.5 91C407.302 91.4792 407.984 91.8125 408.547 92C409.109 92.1771 409.771 92.2656 410.531 92.2656ZM423.219 94.2812C420.74 94.2812 419.5 92.9062 419.5 90.1562V81.3438H416.906V79.3438H419.5V76.375L422.016 75.4375V79.3438H425.594V81.3438H422.016V90C422.016 90.8021 422.219 91.3802 422.625 91.7344C423.031 92.0781 423.484 92.25 423.984 92.25C424.953 92.25 425.708 92.1667 426.25 92L426.562 93.7656C425.604 94.1094 424.49 94.2812 423.219 94.2812ZM437.234 72.2656H453.938V74.4375H447V94H444.172V74.4375H437.234V72.2656ZM467.281 86.0781C467.281 82.7344 466.083 81.0625 463.688 81.0625C463.073 81.0625 462.51 81.2292 462 81.5625C461.219 82.0625 460.604 82.8854 460.156 84.0312C460 84.4271 459.922 84.7396 459.922 84.9688V94H457.406V70.9531H459.922V82.0312C460.859 80.0521 462.385 79.0625 464.5 79.0625C465.354 79.0625 466.12 79.2552 466.797 79.6406C467.484 80.0156 468.021 80.4219 468.406 80.8594C469.333 81.8906 469.797 83.3385 469.797 85.2031V94H467.281V86.0781ZM480.188 81.0625C478.74 81.0625 477.656 81.5 476.938 82.375C476.438 82.9792 476.109 83.8333 475.953 84.9375H483.531C483.438 83.8021 483.099 82.8698 482.516 82.1406C481.922 81.4219 481.146 81.0625 480.188 81.0625ZM485.469 93.1406C484.344 93.901 482.823 94.2812 480.906 94.2812C478.479 94.2812 476.609 93.5885 475.297 92.2031C473.984 90.8177 473.328 88.974 473.328 86.6719C473.328 83.6719 474.302 81.5 476.25 80.1562C477.333 79.4271 478.542 79.0625 479.875 79.0625C481.938 79.0625 483.5 79.7604 484.562 81.1562C485.458 82.3542 485.938 83.9271 486 85.875L485.625 86.8125H475.844C475.865 88.5417 476.328 89.8854 477.234 90.8438C478.141 91.7917 479.349 92.2656 480.859 92.2656C482.005 92.2656 483.318 91.9583 484.797 91.3438L485.469 93.1406ZM498.734 86.6719C498.734 82.9323 497.62 81.0625 495.391 81.0625C494.786 81.0625 494.24 81.2865 493.75 81.7344C493.26 82.1823 492.885 82.7292 492.625 83.375C492.302 84.0312 492.141 84.7135 492.141 85.4219V94H489.625V79.3438H492.141V81.6719C492.464 80.9115 492.938 80.2865 493.562 79.7969C494.198 79.3073 494.984 79.0625 495.922 79.0625C498.276 79.0625 499.839 80.2344 500.609 82.5781C501.432 80.2344 502.88 79.0625 504.953 79.0625C506.672 79.0625 507.974 79.7031 508.859 80.9844C509.755 82.2656 510.203 84.1615 510.203 86.6719V93.9844L507.766 94V86.6719C507.766 82.9323 506.651 81.0625 504.422 81.0625C503.818 81.0625 503.271 81.2865 502.781 81.7344C502.292 82.1823 501.917 82.7292 501.656 83.375C501.333 84.0312 501.172 84.7135 501.172 85.4219V94H498.734V86.6719ZM520.594 81.0625C519.146 81.0625 518.062 81.5 517.344 82.375C516.844 82.9792 516.516 83.8333 516.359 84.9375H523.938C523.844 83.8021 523.505 82.8698 522.922 82.1406C522.328 81.4219 521.552 81.0625 520.594 81.0625ZM525.875 93.1406C524.75 93.901 523.229 94.2812 521.312 94.2812C518.885 94.2812 517.016 93.5885 515.703 92.2031C514.391 90.8177 513.734 88.974 513.734 86.6719C513.734 83.6719 514.708 81.5 516.656 80.1562C517.74 79.4271 518.948 79.0625 520.281 79.0625C522.344 79.0625 523.906 79.7604 524.969 81.1562C525.865 82.3542 526.344 83.9271 526.406 85.875L526.031 86.8125H516.25C516.271 88.5417 516.734 89.8854 517.641 90.8438C518.547 91.7917 519.755 92.2656 521.266 92.2656C522.411 92.2656 523.724 91.9583 525.203 91.3438L525.875 93.1406Z" fill="black"/>
</svg>
